<?xml version="1.0" encoding="utf-8" standalone="no"?>
<!DOCTYPE svg PUBLIC "-//W3C//DTD SVG 1.1//EN"
  "http://www.w3.org/Graphics/SVG/1.1/DTD/svg11.dtd">
<!-- Created with matplotlib (https://matplotlib.org/) -->
<svg height="648pt" version="1.1" viewBox="0 0 792 648" width="792pt" xmlns="http://www.w3.org/2000/svg" xmlns:xlink="http://www.w3.org/1999/xlink">
 <defs>
  <style type="text/css">
*{stroke-linecap:butt;stroke-linejoin:round;}
  </style>
 </defs>
 <g id="figure_1">
  <g id="patch_1">
   <path d="M 0 648 
L 792 648 
L 792 0 
L 0 0 
z
" style="fill:#ffffff;"/>
  </g>
  <g id="axes_1">
   <g id="patch_2">
    <path d="M 99 567 
L 712.8 567 
L 712.8 77.76 
L 99 77.76 
z
" style="fill:#ffffff;"/>
   </g>
   <g id="matplotlib.axis_1">
    <g id="xtick_1">
     <g id="line2d_1">
      <defs>
       <path d="M 0 0 
L 0 3.5 
" id="mbbe0ff74a5" style="stroke:#000000;stroke-width:0.8;"/>
      </defs>
      <g>
       <use style="stroke:#000000;stroke-width:0.8;" x="126.9" xlink:href="#mbbe0ff74a5" y="567"/>
      </g>
     </g>
     <g id="text_1">
      <!-- 2016-08-23 -->
      <defs>
       <path d="M 19.1875 8.296875 
L 53.609375 8.296875 
L 53.609375 0 
L 7.328125 0 
L 7.328125 8.296875 
Q 12.9375 14.109375 22.625 23.890625 
Q 32.328125 33.6875 34.8125 36.53125 
Q 39.546875 41.84375 41.421875 45.53125 
Q 43.3125 49.21875 43.3125 52.78125 
Q 43.3125 58.59375 39.234375 62.25 
Q 35.15625 65.921875 28.609375 65.921875 
Q 23.96875 65.921875 18.8125 64.3125 
Q 13.671875 62.703125 7.8125 59.421875 
L 7.8125 69.390625 
Q 13.765625 71.78125 18.9375 73 
Q 24.125 74.21875 28.421875 74.21875 
Q 39.75 74.21875 46.484375 68.546875 
Q 53.21875 62.890625 53.21875 53.421875 
Q 53.21875 48.921875 51.53125 44.890625 
Q 49.859375 40.875 45.40625 35.40625 
Q 44.1875 33.984375 37.640625 27.21875 
Q 31.109375 20.453125 19.1875 8.296875 
z
" id="DejaVuSans-50"/>
       <path d="M 31.78125 66.40625 
Q 24.171875 66.40625 20.328125 58.90625 
Q 16.5 51.421875 16.5 36.375 
Q 16.5 21.390625 20.328125 13.890625 
Q 24.171875 6.390625 31.78125 6.390625 
Q 39.453125 6.390625 43.28125 13.890625 
Q 47.125 21.390625 47.125 36.375 
Q 47.125 51.421875 43.28125 58.90625 
Q 39.453125 66.40625 31.78125 66.40625 
z
M 31.78125 74.21875 
Q 44.046875 74.21875 50.515625 64.515625 
Q 56.984375 54.828125 56.984375 36.375 
Q 56.984375 17.96875 50.515625 8.265625 
Q 44.046875 -1.421875 31.78125 -1.421875 
Q 19.53125 -1.421875 13.0625 8.265625 
Q 6.59375 17.96875 6.59375 36.375 
Q 6.59375 54.828125 13.0625 64.515625 
Q 19.53125 74.21875 31.78125 74.21875 
z
" id="DejaVuSans-48"/>
       <path d="M 12.40625 8.296875 
L 28.515625 8.296875 
L 28.515625 63.921875 
L 10.984375 60.40625 
L 10.984375 69.390625 
L 28.421875 72.90625 
L 38.28125 72.90625 
L 38.28125 8.296875 
L 54.390625 8.296875 
L 54.390625 0 
L 12.40625 0 
z
" id="DejaVuSans-49"/>
       <path d="M 33.015625 40.375 
Q 26.375 40.375 22.484375 35.828125 
Q 18.609375 31.296875 18.609375 23.390625 
Q 18.609375 15.53125 22.484375 10.953125 
Q 26.375 6.390625 33.015625 6.390625 
Q 39.65625 6.390625 43.53125 10.953125 
Q 47.40625 15.53125 47.40625 23.390625 
Q 47.40625 31.296875 43.53125 35.828125 
Q 39.65625 40.375 33.015625 40.375 
z
M 52.59375 71.296875 
L 52.59375 62.3125 
Q 48.875 64.0625 45.09375 64.984375 
Q 41.3125 65.921875 37.59375 65.921875 
Q 27.828125 65.921875 22.671875 59.328125 
Q 17.53125 52.734375 16.796875 39.40625 
Q 19.671875 43.65625 24.015625 45.921875 
Q 28.375 48.1875 33.59375 48.1875 
Q 44.578125 48.1875 50.953125 41.515625 
Q 57.328125 34.859375 57.328125 23.390625 
Q 57.328125 12.15625 50.6875 5.359375 
Q 44.046875 -1.421875 33.015625 -1.421875 
Q 20.359375 -1.421875 13.671875 8.265625 
Q 6.984375 17.96875 6.984375 36.375 
Q 6.984375 53.65625 15.1875 63.9375 
Q 23.390625 74.21875 37.203125 74.21875 
Q 40.921875 74.21875 44.703125 73.484375 
Q 48.484375 72.75 52.59375 71.296875 
z
" id="DejaVuSans-54"/>
       <path d="M 4.890625 31.390625 
L 31.203125 31.390625 
L 31.203125 23.390625 
L 4.890625 23.390625 
z
" id="DejaVuSans-45"/>
       <path d="M 31.78125 34.625 
Q 24.75 34.625 20.71875 30.859375 
Q 16.703125 27.09375 16.703125 20.515625 
Q 16.703125 13.921875 20.71875 10.15625 
Q 24.75 6.390625 31.78125 6.390625 
Q 38.8125 6.390625 42.859375 10.171875 
Q 46.921875 13.96875 46.921875 20.515625 
Q 46.921875 27.09375 42.890625 30.859375 
Q 38.875 34.625 31.78125 34.625 
z
M 21.921875 38.8125 
Q 15.578125 40.375 12.03125 44.71875 
Q 8.5 49.078125 8.5 55.328125 
Q 8.5 64.0625 14.71875 69.140625 
Q 20.953125 74.21875 31.78125 74.21875 
Q 42.671875 74.21875 48.875 69.140625 
Q 55.078125 64.0625 55.078125 55.328125 
Q 55.078125 49.078125 51.53125 44.71875 
Q 48 40.375 41.703125 38.8125 
Q 48.828125 37.15625 52.796875 32.3125 
Q 56.78125 27.484375 56.78125 20.515625 
Q 56.78125 9.90625 50.3125 4.234375 
Q 43.84375 -1.421875 31.78125 -1.421875 
Q 19.734375 -1.421875 13.25 4.234375 
Q 6.78125 9.90625 6.78125 20.515625 
Q 6.78125 27.484375 10.78125 32.3125 
Q 14.796875 37.15625 21.921875 38.8125 
z
M 18.3125 54.390625 
Q 18.3125 48.734375 21.84375 45.5625 
Q 25.390625 42.390625 31.78125 42.390625 
Q 38.140625 42.390625 41.71875 45.5625 
Q 45.3125 48.734375 45.3125 54.390625 
Q 45.3125 60.0625 41.71875 63.234375 
Q 38.140625 66.40625 31.78125 66.40625 
Q 25.390625 66.40625 21.84375 63.234375 
Q 18.3125 60.0625 18.3125 54.390625 
z
" id="DejaVuSans-56"/>
       <path d="M 40.578125 39.3125 
Q 47.65625 37.796875 51.625 33 
Q 55.609375 28.21875 55.609375 21.1875 
Q 55.609375 10.40625 48.1875 4.484375 
Q 40.765625 -1.421875 27.09375 -1.421875 
Q 22.515625 -1.421875 17.65625 -0.515625 
Q 12.796875 0.390625 7.625 2.203125 
L 7.625 11.71875 
Q 11.71875 9.328125 16.59375 8.109375 
Q 21.484375 6.890625 26.8125 6.890625 
Q 36.078125 6.890625 40.9375 10.546875 
Q 45.796875 14.203125 45.796875 21.1875 
Q 45.796875 27.640625 41.28125 31.265625 
Q 36.765625 34.90625 28.71875 34.90625 
L 20.21875 34.90625 
L 20.21875 43.015625 
L 29.109375 43.015625 
Q 36.375 43.015625 40.234375 45.921875 
Q 44.09375 48.828125 44.09375 54.296875 
Q 44.09375 59.90625 40.109375 62.90625 
Q 36.140625 65.921875 28.71875 65.921875 
Q 24.65625 65.921875 20.015625 65.03125 
Q 15.375 64.15625 9.8125 62.3125 
L 9.8125 71.09375 
Q 15.4375 72.65625 20.34375 73.4375 
Q 25.25 74.21875 29.59375 74.21875 
Q 40.828125 74.21875 47.359375 69.109375 
Q 53.90625 64.015625 53.90625 55.328125 
Q 53.90625 49.265625 50.4375 45.09375 
Q 46.96875 40.921875 40.578125 39.3125 
z
" id="DejaVuSans-51"/>
      </defs>
      <g transform="translate(103.114884 609.638252)rotate(-30)scale(0.1 -0.1)">
       <use xlink:href="#DejaVuSans-50"/>
       <use x="63.623047" xlink:href="#DejaVuSans-48"/>
       <use x="127.246094" xlink:href="#DejaVuSans-49"/>
       <use x="190.869141" xlink:href="#DejaVuSans-54"/>
       <use x="254.492188" xlink:href="#DejaVuSans-45"/>
       <use x="290.576172" xlink:href="#DejaVuSans-48"/>
       <use x="354.199219" xlink:href="#DejaVuSans-56"/>
       <use x="417.822266" xlink:href="#DejaVuSans-45"/>
       <use x="453.90625" xlink:href="#DejaVuSans-50"/>
       <use x="517.529297" xlink:href="#DejaVuSans-51"/>
      </g>
     </g>
    </g>
    <g id="xtick_2">
     <g id="line2d_2">
      <g>
       <use style="stroke:#000000;stroke-width:0.8;" x="252.068237" xlink:href="#mbbe0ff74a5" y="567"/>
      </g>
     </g>
     <g id="text_2">
      <!-- 2016-11-09 -->
      <defs>
       <path d="M 10.984375 1.515625 
L 10.984375 10.5 
Q 14.703125 8.734375 18.5 7.8125 
Q 22.3125 6.890625 25.984375 6.890625 
Q 35.75 6.890625 40.890625 13.453125 
Q 46.046875 20.015625 46.78125 33.40625 
Q 43.953125 29.203125 39.59375 26.953125 
Q 35.25 24.703125 29.984375 24.703125 
Q 19.046875 24.703125 12.671875 31.3125 
Q 6.296875 37.9375 6.296875 49.421875 
Q 6.296875 60.640625 12.9375 67.421875 
Q 19.578125 74.21875 30.609375 74.21875 
Q 43.265625 74.21875 49.921875 64.515625 
Q 56.59375 54.828125 56.59375 36.375 
Q 56.59375 19.140625 48.40625 8.859375 
Q 40.234375 -1.421875 26.421875 -1.421875 
Q 22.703125 -1.421875 18.890625 -0.6875 
Q 15.09375 0.046875 10.984375 1.515625 
z
M 30.609375 32.421875 
Q 37.25 32.421875 41.125 36.953125 
Q 45.015625 41.5 45.015625 49.421875 
Q 45.015625 57.28125 41.125 61.84375 
Q 37.25 66.40625 30.609375 66.40625 
Q 23.96875 66.40625 20.09375 61.84375 
Q 16.21875 57.28125 16.21875 49.421875 
Q 16.21875 41.5 20.09375 36.953125 
Q 23.96875 32.421875 30.609375 32.421875 
z
" id="DejaVuSans-57"/>
      </defs>
      <g transform="translate(228.283121 609.638252)rotate(-30)scale(0.1 -0.1)">
       <use xlink:href="#DejaVuSans-50"/>
       <use x="63.623047" xlink:href="#DejaVuSans-48"/>
       <use x="127.246094" xlink:href="#DejaVuSans-49"/>
       <use x="190.869141" xlink:href="#DejaVuSans-54"/>
       <use x="254.492188" xlink:href="#DejaVuSans-45"/>
       <use x="290.576172" xlink:href="#DejaVuSans-49"/>
       <use x="354.199219" xlink:href="#DejaVuSans-49"/>
       <use x="417.822266" xlink:href="#DejaVuSans-45"/>
       <use x="453.90625" xlink:href="#DejaVuSans-48"/>
       <use x="517.529297" xlink:href="#DejaVuSans-57"/>
      </g>
     </g>
    </g>
    <g id="xtick_3">
     <g id="line2d_3">
      <g>
       <use style="stroke:#000000;stroke-width:0.8;" x="377.236474" xlink:href="#mbbe0ff74a5" y="567"/>
      </g>
     </g>
     <g id="text_3">
      <!-- 2017-01-28 -->
      <defs>
       <path d="M 8.203125 72.90625 
L 55.078125 72.90625 
L 55.078125 68.703125 
L 28.609375 0 
L 18.3125 0 
L 43.21875 64.59375 
L 8.203125 64.59375 
z
" id="DejaVuSans-55"/>
      </defs>
      <g transform="translate(353.451357 609.638252)rotate(-30)scale(0.1 -0.1)">
       <use xlink:href="#DejaVuSans-50"/>
       <use x="63.623047" xlink:href="#DejaVuSans-48"/>
       <use x="127.246094" xlink:href="#DejaVuSans-49"/>
       <use x="190.869141" xlink:href="#DejaVuSans-55"/>
       <use x="254.492188" xlink:href="#DejaVuSans-45"/>
       <use x="290.576172" xlink:href="#DejaVuSans-48"/>
       <use x="354.199219" xlink:href="#DejaVuSans-49"/>
       <use x="417.822266" xlink:href="#DejaVuSans-45"/>
       <use x="453.90625" xlink:href="#DejaVuSans-50"/>
       <use x="517.529297" xlink:href="#DejaVuSans-56"/>
      </g>
     </g>
    </g>
    <g id="xtick_4">
     <g id="line2d_4">
      <g>
       <use style="stroke:#000000;stroke-width:0.8;" x="502.404711" xlink:href="#mbbe0ff74a5" y="567"/>
      </g>
     </g>
     <g id="text_4">
      <!-- 2017-04-18 -->
      <defs>
       <path d="M 37.796875 64.3125 
L 12.890625 25.390625 
L 37.796875 25.390625 
z
M 35.203125 72.90625 
L 47.609375 72.90625 
L 47.609375 25.390625 
L 58.015625 25.390625 
L 58.015625 17.1875 
L 47.609375 17.1875 
L 47.609375 0 
L 37.796875 0 
L 37.796875 17.1875 
L 4.890625 17.1875 
L 4.890625 26.703125 
z
" id="DejaVuSans-52"/>
      </defs>
      <g transform="translate(478.619594 609.638252)rotate(-30)scale(0.1 -0.1)">
       <use xlink:href="#DejaVuSans-50"/>
       <use x="63.623047" xlink:href="#DejaVuSans-48"/>
       <use x="127.246094" xlink:href="#DejaVuSans-49"/>
       <use x="190.869141" xlink:href="#DejaVuSans-55"/>
       <use x="254.492188" xlink:href="#DejaVuSans-45"/>
       <use x="290.576172" xlink:href="#DejaVuSans-48"/>
       <use x="354.199219" xlink:href="#DejaVuSans-52"/>
       <use x="417.822266" xlink:href="#DejaVuSans-45"/>
       <use x="453.90625" xlink:href="#DejaVuSans-49"/>
       <use x="517.529297" xlink:href="#DejaVuSans-56"/>
      </g>
     </g>
    </g>
    <g id="xtick_5">
     <g id="line2d_5">
      <g>
       <use style="stroke:#000000;stroke-width:0.8;" x="627.572948" xlink:href="#mbbe0ff74a5" y="567"/>
      </g>
     </g>
     <g id="text_5">
      <!-- 2017-07-10 -->
      <g transform="translate(603.787831 609.638252)rotate(-30)scale(0.1 -0.1)">
       <use xlink:href="#DejaVuSans-50"/>
       <use x="63.623047" xlink:href="#DejaVuSans-48"/>
       <use x="127.246094" xlink:href="#DejaVuSans-49"/>
       <use x="190.869141" xlink:href="#DejaVuSans-55"/>
       <use x="254.492188" xlink:href="#DejaVuSans-45"/>
       <use x="290.576172" xlink:href="#DejaVuSans-48"/>
       <use x="354.199219" xlink:href="#DejaVuSans-55"/>
       <use x="417.822266" xlink:href="#DejaVuSans-45"/>
       <use x="453.90625" xlink:href="#DejaVuSans-49"/>
       <use x="517.529297" xlink:href="#DejaVuSans-48"/>
      </g>
     </g>
    </g>
    <g id="text_6">
     <!-- Date -->
     <defs>
      <path d="M 19.671875 64.796875 
L 19.671875 8.109375 
L 31.59375 8.109375 
Q 46.6875 8.109375 53.6875 14.9375 
Q 60.6875 21.78125 60.6875 36.53125 
Q 60.6875 51.171875 53.6875 57.984375 
Q 46.6875 64.796875 31.59375 64.796875 
z
M 9.8125 72.90625 
L 30.078125 72.90625 
Q 51.265625 72.90625 61.171875 64.09375 
Q 71.09375 55.28125 71.09375 36.53125 
Q 71.09375 17.671875 61.125 8.828125 
Q 51.171875 0 30.078125 0 
L 9.8125 0 
z
" id="DejaVuSans-68"/>
      <path d="M 34.28125 27.484375 
Q 23.390625 27.484375 19.1875 25 
Q 14.984375 22.515625 14.984375 16.5 
Q 14.984375 11.71875 18.140625 8.90625 
Q 21.296875 6.109375 26.703125 6.109375 
Q 34.1875 6.109375 38.703125 11.40625 
Q 43.21875 16.703125 43.21875 25.484375 
L 43.21875 27.484375 
z
M 52.203125 31.203125 
L 52.203125 0 
L 43.21875 0 
L 43.21875 8.296875 
Q 40.140625 3.328125 35.546875 0.953125 
Q 30.953125 -1.421875 24.3125 -1.421875 
Q 15.921875 -1.421875 10.953125 3.296875 
Q 6 8.015625 6 15.921875 
Q 6 25.140625 12.171875 29.828125 
Q 18.359375 34.515625 30.609375 34.515625 
L 43.21875 34.515625 
L 43.21875 35.40625 
Q 43.21875 41.609375 39.140625 45 
Q 35.0625 48.390625 27.6875 48.390625 
Q 23 48.390625 18.546875 47.265625 
Q 14.109375 46.140625 10.015625 43.890625 
L 10.015625 52.203125 
Q 14.9375 54.109375 19.578125 55.046875 
Q 24.21875 56 28.609375 56 
Q 40.484375 56 46.34375 49.84375 
Q 52.203125 43.703125 52.203125 31.203125 
z
" id="DejaVuSans-97"/>
      <path d="M 18.3125 70.21875 
L 18.3125 54.6875 
L 36.8125 54.6875 
L 36.8125 47.703125 
L 18.3125 47.703125 
L 18.3125 18.015625 
Q 18.3125 11.328125 20.140625 9.421875 
Q 21.96875 7.515625 27.59375 7.515625 
L 36.8125 7.515625 
L 36.8125 0 
L 27.59375 0 
Q 17.1875 0 13.234375 3.875 
Q 9.28125 7.765625 9.28125 18.015625 
L 9.28125 47.703125 
L 2.6875 47.703125 
L 2.6875 54.6875 
L 9.28125 54.6875 
L 9.28125 70.21875 
z
" id="DejaVuSans-116"/>
      <path d="M 56.203125 29.59375 
L 56.203125 25.203125 
L 14.890625 25.203125 
Q 15.484375 15.921875 20.484375 11.0625 
Q 25.484375 6.203125 34.421875 6.203125 
Q 39.59375 6.203125 44.453125 7.46875 
Q 49.3125 8.734375 54.109375 11.28125 
L 54.109375 2.78125 
Q 49.265625 0.734375 44.1875 -0.34375 
Q 39.109375 -1.421875 33.890625 -1.421875 
Q 20.796875 -1.421875 13.15625 6.1875 
Q 5.515625 13.8125 5.515625 26.8125 
Q 5.515625 40.234375 12.765625 48.109375 
Q 20.015625 56 32.328125 56 
Q 43.359375 56 49.78125 48.890625 
Q 56.203125 41.796875 56.203125 29.59375 
z
M 47.21875 32.234375 
Q 47.125 39.59375 43.09375 43.984375 
Q 39.0625 48.390625 32.421875 48.390625 
Q 24.90625 48.390625 20.390625 44.140625 
Q 15.875 39.890625 15.1875 32.171875 
z
" id="DejaVuSans-101"/>
     </defs>
     <g transform="translate(393.949219 623.037752)scale(0.1 -0.1)">
      <use xlink:href="#DejaVuSans-68"/>
      <use x="77.001953" xlink:href="#DejaVuSans-97"/>
      <use x="138.28125" xlink:href="#DejaVuSans-116"/>
      <use x="177.490234" xlink:href="#DejaVuSans-101"/>
     </g>
    </g>
   </g>
   <g id="matplotlib.axis_2">
    <g id="ytick_1">
     <g id="line2d_6">
      <defs>
       <path d="M 0 0 
L -3.5 0 
" id="mea56fc3cd0" style="stroke:#000000;stroke-width:0.8;"/>
      </defs>
      <g>
       <use style="stroke:#000000;stroke-width:0.8;" x="99" xlink:href="#mea56fc3cd0" y="544.761818"/>
      </g>
     </g>
     <g id="text_7">
      <!-- 0 -->
      <g transform="translate(85.6375 548.561037)scale(0.1 -0.1)">
       <use xlink:href="#DejaVuSans-48"/>
      </g>
     </g>
    </g>
    <g id="ytick_2">
     <g id="line2d_7">
      <g>
       <use style="stroke:#000000;stroke-width:0.8;" x="99" xlink:href="#mea56fc3cd0" y="478.379186"/>
      </g>
     </g>
     <g id="text_8">
      <!-- 1 -->
      <g transform="translate(85.6375 482.178405)scale(0.1 -0.1)">
       <use xlink:href="#DejaVuSans-49"/>
      </g>
     </g>
    </g>
    <g id="ytick_3">
     <g id="line2d_8">
      <g>
       <use style="stroke:#000000;stroke-width:0.8;" x="99" xlink:href="#mea56fc3cd0" y="411.996554"/>
      </g>
     </g>
     <g id="text_9">
      <!-- 2 -->
      <g transform="translate(85.6375 415.795772)scale(0.1 -0.1)">
       <use xlink:href="#DejaVuSans-50"/>
      </g>
     </g>
    </g>
    <g id="ytick_4">
     <g id="line2d_9">
      <g>
       <use style="stroke:#000000;stroke-width:0.8;" x="99" xlink:href="#mea56fc3cd0" y="345.613921"/>
      </g>
     </g>
     <g id="text_10">
      <!-- 3 -->
      <g transform="translate(85.6375 349.41314)scale(0.1 -0.1)">
       <use xlink:href="#DejaVuSans-51"/>
      </g>
     </g>
    </g>
    <g id="ytick_5">
     <g id="line2d_10">
      <g>
       <use style="stroke:#000000;stroke-width:0.8;" x="99" xlink:href="#mea56fc3cd0" y="279.231289"/>
      </g>
     </g>
     <g id="text_11">
      <!-- 4 -->
      <g transform="translate(85.6375 283.030508)scale(0.1 -0.1)">
       <use xlink:href="#DejaVuSans-52"/>
      </g>
     </g>
    </g>
    <g id="ytick_6">
     <g id="line2d_11">
      <g>
       <use style="stroke:#000000;stroke-width:0.8;" x="99" xlink:href="#mea56fc3cd0" y="212.848657"/>
      </g>
     </g>
     <g id="text_12">
      <!-- 5 -->
      <defs>
       <path d="M 10.796875 72.90625 
L 49.515625 72.90625 
L 49.515625 64.59375 
L 19.828125 64.59375 
L 19.828125 46.734375 
Q 21.96875 47.46875 24.109375 47.828125 
Q 26.265625 48.1875 28.421875 48.1875 
Q 40.625 48.1875 47.75 41.5 
Q 54.890625 34.8125 54.890625 23.390625 
Q 54.890625 11.625 47.5625 5.09375 
Q 40.234375 -1.421875 26.90625 -1.421875 
Q 22.3125 -1.421875 17.546875 -0.640625 
Q 12.796875 0.140625 7.71875 1.703125 
L 7.71875 11.625 
Q 12.109375 9.234375 16.796875 8.0625 
Q 21.484375 6.890625 26.703125 6.890625 
Q 35.15625 6.890625 40.078125 11.328125 
Q 45.015625 15.765625 45.015625 23.390625 
Q 45.015625 31 40.078125 35.4375 
Q 35.15625 39.890625 26.703125 39.890625 
Q 22.75 39.890625 18.8125 39.015625 
Q 14.890625 38.140625 10.796875 36.28125 
z
" id="DejaVuSans-53"/>
      </defs>
      <g transform="translate(85.6375 216.647875)scale(0.1 -0.1)">
       <use xlink:href="#DejaVuSans-53"/>
      </g>
     </g>
    </g>
    <g id="ytick_7">
     <g id="line2d_12">
      <g>
       <use style="stroke:#000000;stroke-width:0.8;" x="99" xlink:href="#mea56fc3cd0" y="146.466024"/>
      </g>
     </g>
     <g id="text_13">
      <!-- 6 -->
      <g transform="translate(85.6375 150.265243)scale(0.1 -0.1)">
       <use xlink:href="#DejaVuSans-54"/>
      </g>
     </g>
    </g>
    <g id="ytick_8">
     <g id="line2d_13">
      <g>
       <use style="stroke:#000000;stroke-width:0.8;" x="99" xlink:href="#mea56fc3cd0" y="80.083392"/>
      </g>
     </g>
     <g id="text_14">
      <!-- 7 -->
      <g transform="translate(85.6375 83.882611)scale(0.1 -0.1)">
       <use xlink:href="#DejaVuSans-55"/>
      </g>
     </g>
    </g>
    <g id="text_15">
     <!-- Precipitation (in) -->
     <defs>
      <path d="M 19.671875 64.796875 
L 19.671875 37.40625 
L 32.078125 37.40625 
Q 38.96875 37.40625 42.71875 40.96875 
Q 46.484375 44.53125 46.484375 51.125 
Q 46.484375 57.671875 42.71875 61.234375 
Q 38.96875 64.796875 32.078125 64.796875 
z
M 9.8125 72.90625 
L 32.078125 72.90625 
Q 44.34375 72.90625 50.609375 67.359375 
Q 56.890625 61.8125 56.890625 51.125 
Q 56.890625 40.328125 50.609375 34.8125 
Q 44.34375 29.296875 32.078125 29.296875 
L 19.671875 29.296875 
L 19.671875 0 
L 9.8125 0 
z
" id="DejaVuSans-80"/>
      <path d="M 41.109375 46.296875 
Q 39.59375 47.171875 37.8125 47.578125 
Q 36.03125 48 33.890625 48 
Q 26.265625 48 22.1875 43.046875 
Q 18.109375 38.09375 18.109375 28.8125 
L 18.109375 0 
L 9.078125 0 
L 9.078125 54.6875 
L 18.109375 54.6875 
L 18.109375 46.1875 
Q 20.953125 51.171875 25.484375 53.578125 
Q 30.03125 56 36.53125 56 
Q 37.453125 56 38.578125 55.875 
Q 39.703125 55.765625 41.0625 55.515625 
z
" id="DejaVuSans-114"/>
      <path d="M 48.78125 52.59375 
L 48.78125 44.1875 
Q 44.96875 46.296875 41.140625 47.34375 
Q 37.3125 48.390625 33.40625 48.390625 
Q 24.65625 48.390625 19.8125 42.84375 
Q 14.984375 37.3125 14.984375 27.296875 
Q 14.984375 17.28125 19.8125 11.734375 
Q 24.65625 6.203125 33.40625 6.203125 
Q 37.3125 6.203125 41.140625 7.25 
Q 44.96875 8.296875 48.78125 10.40625 
L 48.78125 2.09375 
Q 45.015625 0.34375 40.984375 -0.53125 
Q 36.96875 -1.421875 32.421875 -1.421875 
Q 20.0625 -1.421875 12.78125 6.34375 
Q 5.515625 14.109375 5.515625 27.296875 
Q 5.515625 40.671875 12.859375 48.328125 
Q 20.21875 56 33.015625 56 
Q 37.15625 56 41.109375 55.140625 
Q 45.0625 54.296875 48.78125 52.59375 
z
" id="DejaVuSans-99"/>
      <path d="M 9.421875 54.6875 
L 18.40625 54.6875 
L 18.40625 0 
L 9.421875 0 
z
M 9.421875 75.984375 
L 18.40625 75.984375 
L 18.40625 64.59375 
L 9.421875 64.59375 
z
" id="DejaVuSans-105"/>
      <path d="M 18.109375 8.203125 
L 18.109375 -20.796875 
L 9.078125 -20.796875 
L 9.078125 54.6875 
L 18.109375 54.6875 
L 18.109375 46.390625 
Q 20.953125 51.265625 25.265625 53.625 
Q 29.59375 56 35.59375 56 
Q 45.5625 56 51.78125 48.09375 
Q 58.015625 40.1875 58.015625 27.296875 
Q 58.015625 14.40625 51.78125 6.484375 
Q 45.5625 -1.421875 35.59375 -1.421875 
Q 29.59375 -1.421875 25.265625 0.953125 
Q 20.953125 3.328125 18.109375 8.203125 
z
M 48.6875 27.296875 
Q 48.6875 37.203125 44.609375 42.84375 
Q 40.53125 48.484375 33.40625 48.484375 
Q 26.265625 48.484375 22.1875 42.84375 
Q 18.109375 37.203125 18.109375 27.296875 
Q 18.109375 17.390625 22.1875 11.75 
Q 26.265625 6.109375 33.40625 6.109375 
Q 40.53125 6.109375 44.609375 11.75 
Q 48.6875 17.390625 48.6875 27.296875 
z
" id="DejaVuSans-112"/>
      <path d="M 30.609375 48.390625 
Q 23.390625 48.390625 19.1875 42.75 
Q 14.984375 37.109375 14.984375 27.296875 
Q 14.984375 17.484375 19.15625 11.84375 
Q 23.34375 6.203125 30.609375 6.203125 
Q 37.796875 6.203125 41.984375 11.859375 
Q 46.1875 17.53125 46.1875 27.296875 
Q 46.1875 37.015625 41.984375 42.703125 
Q 37.796875 48.390625 30.609375 48.390625 
z
M 30.609375 56 
Q 42.328125 56 49.015625 48.375 
Q 55.71875 40.765625 55.71875 27.296875 
Q 55.71875 13.875 49.015625 6.21875 
Q 42.328125 -1.421875 30.609375 -1.421875 
Q 18.84375 -1.421875 12.171875 6.21875 
Q 5.515625 13.875 5.515625 27.296875 
Q 5.515625 40.765625 12.171875 48.375 
Q 18.84375 56 30.609375 56 
z
" id="DejaVuSans-111"/>
      <path d="M 54.890625 33.015625 
L 54.890625 0 
L 45.90625 0 
L 45.90625 32.71875 
Q 45.90625 40.484375 42.875 44.328125 
Q 39.84375 48.1875 33.796875 48.1875 
Q 26.515625 48.1875 22.3125 43.546875 
Q 18.109375 38.921875 18.109375 30.90625 
L 18.109375 0 
L 9.078125 0 
L 9.078125 54.6875 
L 18.109375 54.6875 
L 18.109375 46.1875 
Q 21.34375 51.125 25.703125 53.5625 
Q 30.078125 56 35.796875 56 
Q 45.21875 56 50.046875 50.171875 
Q 54.890625 44.34375 54.890625 33.015625 
z
" id="DejaVuSans-110"/>
      <path id="DejaVuSans-32"/>
      <path d="M 31 75.875 
Q 24.46875 64.65625 21.28125 53.65625 
Q 18.109375 42.671875 18.109375 31.390625 
Q 18.109375 20.125 21.3125 9.0625 
Q 24.515625 -2 31 -13.1875 
L 23.1875 -13.1875 
Q 15.875 -1.703125 12.234375 9.375 
Q 8.59375 20.453125 8.59375 31.390625 
Q 8.59375 42.28125 12.203125 53.3125 
Q 15.828125 64.359375 23.1875 75.875 
z
" id="DejaVuSans-40"/>
      <path d="M 8.015625 75.875 
L 15.828125 75.875 
Q 23.140625 64.359375 26.78125 53.3125 
Q 30.421875 42.28125 30.421875 31.390625 
Q 30.421875 20.453125 26.78125 9.375 
Q 23.140625 -1.703125 15.828125 -13.1875 
L 8.015625 -13.1875 
Q 14.5 -2 17.703125 9.0625 
Q 20.90625 20.125 20.90625 31.390625 
Q 20.90625 42.671875 17.703125 53.65625 
Q 14.5 64.65625 8.015625 75.875 
z
" id="DejaVuSans-41"/>
     </defs>
     <g transform="translate(79.557812 363.876094)rotate(-90)scale(0.1 -0.1)">
      <use xlink:href="#DejaVuSans-80"/>
      <use x="60.287109" xlink:href="#DejaVuSans-114"/>
      <use x="101.369141" xlink:href="#DejaVuSans-101"/>
      <use x="162.892578" xlink:href="#DejaVuSans-99"/>
      <use x="217.873047" xlink:href="#DejaVuSans-105"/>
      <use x="245.65625" xlink:href="#DejaVuSans-112"/>
      <use x="309.132812" xlink:href="#DejaVuSans-105"/>
      <use x="336.916016" xlink:href="#DejaVuSans-116"/>
      <use x="376.125" xlink:href="#DejaVuSans-97"/>
      <use x="437.404297" xlink:href="#DejaVuSans-116"/>
      <use x="476.613281" xlink:href="#DejaVuSans-105"/>
      <use x="504.396484" xlink:href="#DejaVuSans-111"/>
      <use x="565.578125" xlink:href="#DejaVuSans-110"/>
      <use x="628.957031" xlink:href="#DejaVuSans-32"/>
      <use x="660.744141" xlink:href="#DejaVuSans-40"/>
      <use x="699.757812" xlink:href="#DejaVuSans-105"/>
      <use x="727.541016" xlink:href="#DejaVuSans-110"/>
      <use x="790.919922" xlink:href="#DejaVuSans-41"/>
     </g>
    </g>
   </g>
   <g id="line2d_14">
    <path clip-path="url(#p8976e428bc)" d="M 126.9 544.761818 
L 127.150336 539.451208 
L 127.400673 425.936906 
L 127.651009 541.442687 
L 127.901346 534.804423 
L 128.151682 498.293976 
L 128.402019 543.434166 
L 128.652355 539.451208 
L 128.902692 402.039159 
L 129.153028 393.409417 
L 129.403365 538.123555 
L 129.653701 448.507001 
L 129.904038 463.775007 
L 130.154374 402.039159 
L 130.404711 539.451208 
L 130.655047 544.761818 
L 130.905384 530.821465 
L 131.15572 540.77886 
L 131.406057 544.761818 
L 131.656393 537.459729 
L 131.906729 539.451208 
L 132.157066 542.770339 
L 132.407402 544.097992 
L 132.657739 544.761818 
L 132.908075 542.106513 
L 133.408748 544.761818 
L 133.659085 532.812944 
L 133.909421 536.795902 
L 134.159758 544.761818 
L 134.410094 544.761818 
L 134.660431 543.434166 
L 134.910767 535.46825 
L 135.161104 504.932239 
L 135.41144 535.46825 
L 135.661777 544.097992 
L 135.912113 535.46825 
L 136.16245 535.46825 
L 136.412786 407.349769 
L 136.663122 544.761818 
L 136.913459 539.451208 
L 137.414132 544.761818 
L 137.664468 533.476771 
L 137.914805 485.017449 
L 138.415478 544.761818 
L 138.665814 543.434166 
L 138.916151 544.761818 
L 139.166487 541.442687 
L 139.416824 544.761818 
L 139.66716 544.761818 
L 139.917497 538.123555 
L 140.167833 539.451208 
L 140.41817 528.829986 
L 140.668506 536.132076 
L 140.918843 538.787381 
L 141.169179 381.460543 
L 141.419515 528.16616 
L 141.669852 544.761818 
L 141.920188 543.434166 
L 142.170525 544.761818 
L 142.420861 540.77886 
L 142.671198 544.097992 
L 142.921534 544.761818 
L 143.171871 544.761818 
L 143.422207 542.770339 
L 143.672544 543.434166 
L 143.92288 540.115034 
L 144.173217 540.115034 
L 144.423553 544.097992 
L 144.67389 532.149118 
L 144.924226 478.379186 
L 145.174563 539.451208 
L 145.424899 536.795902 
L 145.675236 544.761818 
L 145.925572 540.115034 
L 146.175908 542.770339 
L 146.426245 535.46825 
L 146.676581 495.63867 
L 146.926918 542.770339 
L 147.177254 515.55346 
L 147.427591 543.434166 
L 147.677927 542.770339 
L 147.928264 537.459729 
L 148.1786 540.77886 
L 148.428937 538.787381 
L 148.679273 532.812944 
L 149.179946 541.442687 
L 149.430283 542.770339 
L 149.680619 478.379186 
L 149.930956 537.459729 
L 150.181292 542.106513 
L 150.431629 534.140597 
L 150.681965 541.442687 
L 150.932301 537.459729 
L 151.182638 538.123555 
L 151.432974 455.145265 
L 151.683311 529.493813 
L 151.933647 540.115034 
L 152.183984 544.097992 
L 152.43432 534.804423 
L 152.684657 530.157639 
L 152.934993 544.097992 
L 153.18533 539.451208 
L 153.435666 544.761818 
L 153.686003 529.493813 
L 153.936339 521.527897 
L 154.186676 525.510855 
L 154.437012 538.787381 
L 154.687349 544.097992 
L 154.937685 542.770339 
L 155.188022 534.140597 
L 155.438358 544.761818 
L 155.688694 535.46825 
L 155.939031 467.757965 
L 156.189367 544.097992 
L 156.439704 538.787381 
L 156.69004 524.847028 
L 156.940377 536.795902 
L 157.190713 532.812944 
L 157.44105 541.442687 
L 157.941723 475.723881 
L 158.192059 538.787381 
L 158.442396 542.106513 
L 158.692732 538.787381 
L 158.943069 524.183202 
L 159.193405 544.761818 
L 159.443742 534.804423 
L 159.944415 543.434166 
L 160.194751 465.102659 
L 160.445087 523.519376 
L 160.695424 514.225807 
L 160.94576 522.191723 
L 161.196097 520.200244 
L 161.446433 457.136744 
L 161.69677 485.017449 
L 161.947106 465.766486 
L 162.197443 422.617775 
L 162.447779 99.998182 
L 162.698116 390.090285 
L 162.948452 536.795902 
L 163.198789 516.881113 
L 163.449125 536.795902 
L 163.699462 533.476771 
L 164.200135 540.115034 
L 164.450471 322.38 
L 164.700808 489.664233 
L 164.951144 504.268412 
L 165.20148 544.761818 
L 165.451817 540.77886 
L 165.702153 540.115034 
L 165.95249 540.77886 
L 166.202826 544.097992 
L 166.453163 544.097992 
L 166.703499 544.761818 
L 166.953836 529.493813 
L 167.204172 542.106513 
L 167.454509 520.864071 
L 167.704845 541.442687 
L 167.955182 544.761818 
L 168.205518 540.115034 
L 168.455855 542.106513 
L 168.706191 516.881113 
L 168.956528 544.761818 
L 169.206864 528.16616 
L 169.457201 544.097992 
L 169.707537 541.442687 
L 169.957873 544.761818 
L 170.20821 544.097992 
L 170.458546 538.787381 
L 170.708883 538.787381 
L 170.959219 544.761818 
L 171.209556 538.787381 
L 171.459892 530.157639 
L 171.710229 544.761818 
L 171.960565 542.106513 
L 172.461238 516.217286 
L 172.711575 540.77886 
L 172.961911 544.761818 
L 173.212248 540.115034 
L 173.462584 543.434166 
L 173.712921 477.051533 
L 173.963257 544.761818 
L 174.213594 494.974844 
L 174.46393 538.787381 
L 174.714266 540.77886 
L 174.964603 544.097992 
L 175.465276 522.191723 
L 175.715612 543.434166 
L 175.965949 522.85555 
L 176.216285 544.761818 
L 176.466622 482.362144 
L 176.716958 534.804423 
L 176.967295 544.761818 
L 177.217631 534.804423 
L 177.467968 544.761818 
L 177.718304 544.761818 
L 177.968641 526.838507 
L 178.218977 544.761818 
L 178.71965 544.761818 
L 178.969987 544.097992 
L 179.220323 544.761818 
L 179.470659 543.434166 
L 179.720996 542.770339 
L 179.971332 544.761818 
L 180.221669 544.761818 
L 180.472005 542.106513 
L 180.722342 543.434166 
L 180.972678 533.476771 
L 181.223015 477.051533 
L 181.473351 540.77886 
L 181.723688 522.191723 
L 181.974024 540.77886 
L 182.224361 538.123555 
L 182.474697 536.795902 
L 182.97537 544.761818 
L 183.225707 478.379186 
L 183.476043 533.476771 
L 183.72638 543.434166 
L 183.976716 544.761818 
L 184.477389 544.761818 
L 184.978062 539.451208 
L 185.228398 544.761818 
L 185.478735 544.761818 
L 185.729071 531.485292 
L 185.979408 544.761818 
L 186.229744 542.106513 
L 186.480081 505.596065 
L 186.730417 512.234328 
L 186.980754 445.851696 
L 187.23109 532.812944 
L 187.731763 524.183202 
L 187.9821 539.451208 
L 188.232436 519.536418 
L 188.482773 544.761818 
L 188.733109 540.77886 
L 188.983445 534.804423 
L 189.233782 544.761818 
L 189.484118 535.46825 
L 189.734455 539.451208 
L 189.984791 535.46825 
L 190.235128 540.115034 
L 190.485464 477.051533 
L 190.735801 504.268412 
L 190.986137 544.761818 
L 191.236474 543.434166 
L 191.48681 542.770339 
L 191.737147 540.77886 
L 191.987483 544.761818 
L 192.23782 542.770339 
L 192.488156 514.225807 
L 192.738493 544.761818 
L 192.988829 538.787381 
L 193.239166 542.106513 
L 193.489502 534.140597 
L 193.739838 544.761818 
L 193.990175 315.07791 
L 194.240511 544.761818 
L 194.490848 537.459729 
L 194.741184 542.770339 
L 194.991521 544.761818 
L 195.492194 544.761818 
L 195.74253 490.991886 
L 195.992867 544.761818 
L 196.243203 544.097992 
L 196.49354 544.761818 
L 196.743876 544.761818 
L 196.994213 539.451208 
L 197.244549 544.761818 
L 197.745222 544.761818 
L 198.245895 540.115034 
L 198.496231 544.761818 
L 198.746568 541.442687 
L 198.996904 544.761818 
L 199.247241 544.761818 
L 199.497577 538.123555 
L 199.747914 544.761818 
L 199.99825 544.761818 
L 200.248587 544.097992 
L 200.498923 544.761818 
L 200.74926 544.761818 
L 200.999596 542.106513 
L 201.249933 544.761818 
L 204.504307 544.761818 
L 204.754643 537.459729 
L 205.00498 544.761818 
L 205.255316 542.106513 
L 205.505653 526.174681 
L 205.755989 543.434166 
L 206.006326 544.761818 
L 206.256662 521.527897 
L 206.506999 538.787381 
L 206.757335 542.770339 
L 207.007672 544.761818 
L 207.258008 543.434166 
L 207.508345 544.761818 
L 207.758681 542.770339 
L 208.009017 544.761818 
L 208.259354 544.761818 
L 208.50969 540.77886 
L 208.760027 544.761818 
L 209.010363 539.451208 
L 209.2607 543.434166 
L 209.511036 544.761818 
L 211.513728 544.761818 
L 211.764065 543.434166 
L 212.014401 544.761818 
L 212.264738 522.85555 
L 212.515074 542.106513 
L 212.76541 544.761818 
L 214.017093 544.761818 
L 214.267429 539.451208 
L 214.517766 544.097992 
L 214.768102 544.097992 
L 215.018439 538.123555 
L 215.268775 536.795902 
L 215.519112 542.770339 
L 215.769448 519.536418 
L 216.019785 543.434166 
L 216.270121 544.761818 
L 216.520458 541.442687 
L 216.770794 543.434166 
L 217.021131 539.451208 
L 217.271467 542.770339 
L 217.521803 512.898155 
L 217.77214 539.451208 
L 218.022476 544.761818 
L 218.272813 537.459729 
L 218.523149 544.761818 
L 219.023822 544.761818 
L 219.274159 540.77886 
L 219.524495 544.761818 
L 219.774832 544.097992 
L 220.025168 544.761818 
L 220.275505 538.123555 
L 220.525841 478.379186 
L 220.776178 544.761818 
L 221.026514 536.795902 
L 221.276851 534.804423 
L 221.527187 538.787381 
L 221.777524 538.787381 
L 222.02786 542.770339 
L 222.278197 541.442687 
L 222.528533 544.761818 
L 222.778869 453.817612 
L 223.029206 534.804423 
L 223.279542 534.804423 
L 223.529879 538.123555 
L 223.780215 544.761818 
L 224.030552 543.434166 
L 224.280888 544.761818 
L 224.531225 544.097992 
L 224.781561 544.097992 
L 225.031898 539.451208 
L 225.282234 528.829986 
L 225.532571 544.097992 
L 225.782907 544.761818 
L 226.033244 539.451208 
L 226.28358 498.293976 
L 226.533917 544.761818 
L 226.784253 544.761818 
L 227.03459 536.795902 
L 227.284926 518.208765 
L 227.535262 542.106513 
L 227.785599 544.761818 
L 228.035935 537.459729 
L 228.286272 542.770339 
L 228.536608 518.208765 
L 228.786945 536.795902 
L 229.037281 544.761818 
L 229.287618 540.77886 
L 229.537954 544.097992 
L 229.788291 544.761818 
L 230.038627 531.485292 
L 230.288964 543.434166 
L 230.5393 537.459729 
L 230.789637 544.761818 
L 231.039973 537.459729 
L 231.29031 539.451208 
L 231.540646 461.783528 
L 231.790983 530.157639 
L 232.041319 531.485292 
L 232.291655 541.442687 
L 232.541992 540.115034 
L 232.792328 540.77886 
L 233.042665 536.795902 
L 233.293001 544.761818 
L 233.543338 543.434166 
L 233.793674 520.200244 
L 234.044011 543.434166 
L 234.294347 527.502334 
L 234.544684 528.16616 
L 234.79502 544.761818 
L 235.045357 544.097992 
L 235.295693 538.123555 
L 235.54603 538.123555 
L 235.796366 535.46825 
L 236.046703 528.829986 
L 236.297039 481.698318 
L 236.547376 534.140597 
L 236.797712 544.761818 
L 237.048048 544.761818 
L 237.298385 536.132076 
L 237.548721 455.145265 
L 237.799058 536.132076 
L 238.299731 542.770339 
L 238.550067 542.770339 
L 238.800404 544.097992 
L 239.05074 538.123555 
L 239.301077 544.761818 
L 239.551413 544.097992 
L 239.80175 544.761818 
L 240.052086 538.787381 
L 240.552759 544.761818 
L 242.805787 544.761818 
L 243.056124 543.434166 
L 243.30646 544.761818 
L 244.05747 544.761818 
L 244.558143 537.459729 
L 244.808479 544.761818 
L 245.058816 544.761818 
L 245.309152 543.434166 
L 245.559489 542.770339 
L 245.809825 519.536418 
L 246.060162 543.434166 
L 246.310498 544.761818 
L 246.811171 544.761818 
L 247.061507 541.442687 
L 247.311844 543.434166 
L 247.812517 544.761818 
L 248.062853 536.132076 
L 248.31319 544.761818 
L 248.563526 536.132076 
L 249.064199 544.761818 
L 249.564872 544.761818 
L 249.815209 530.821465 
L 250.065545 509.579023 
L 250.315882 534.804423 
L 250.816555 543.434166 
L 251.066891 535.46825 
L 251.317227 537.459729 
L 251.567564 533.476771 
L 251.8179 544.761818 
L 252.068237 544.761818 
L 252.318573 539.451208 
L 252.819246 544.761818 
L 254.070929 544.761818 
L 254.321265 544.097992 
L 254.571602 544.761818 
L 259.327995 544.761818 
L 259.578331 543.434166 
L 259.828668 544.761818 
L 260.079004 543.434166 
L 260.329341 540.77886 
L 260.579677 541.442687 
L 260.830013 544.761818 
L 261.08035 544.761818 
L 261.581023 537.459729 
L 261.831359 544.761818 
L 262.332032 544.761818 
L 262.582369 535.46825 
L 262.832705 532.812944 
L 263.083042 528.829986 
L 263.333378 537.459729 
L 263.583715 484.353623 
L 263.834051 544.761818 
L 264.084388 540.115034 
L 264.334724 544.761818 
L 264.585061 544.761818 
L 264.835397 537.459729 
L 265.085734 543.434166 
L 265.33607 542.770339 
L 265.586406 544.761818 
L 265.836743 544.097992 
L 266.087079 536.132076 
L 266.337416 544.097992 
L 266.587752 544.761818 
L 266.838089 543.434166 
L 267.088425 544.761818 
L 267.338762 536.132076 
L 267.589098 542.770339 
L 267.839435 537.459729 
L 268.089771 537.459729 
L 268.340108 541.442687 
L 268.590444 535.46825 
L 268.840781 537.459729 
L 269.091117 518.208765 
L 269.341454 518.872592 
L 269.59179 540.115034 
L 269.842127 534.804423 
L 270.092463 537.459729 
L 270.342799 544.097992 
L 270.593136 543.434166 
L 270.843472 354.243664 
L 271.093809 536.795902 
L 271.344145 517.544939 
L 271.594482 404.694464 
L 271.844818 408.677422 
L 272.095155 524.183202 
L 272.345491 536.795902 
L 272.846164 535.46825 
L 273.096501 528.16616 
L 273.346837 542.770339 
L 273.597174 537.459729 
L 273.84751 542.770339 
L 274.097847 530.157639 
L 274.348183 531.485292 
L 274.59852 496.966323 
L 275.099192 541.442687 
L 275.349529 530.821465 
L 275.599865 476.387707 
L 275.850202 537.459729 
L 276.100538 535.46825 
L 276.350875 541.442687 
L 276.601211 539.451208 
L 276.851548 541.442687 
L 277.101884 540.77886 
L 277.352221 524.847028 
L 277.602557 541.442687 
L 277.852894 542.770339 
L 278.10323 543.434166 
L 278.353567 541.442687 
L 278.603903 533.476771 
L 278.85424 540.77886 
L 279.104576 544.761818 
L 279.354913 542.770339 
L 279.605249 525.510855 
L 279.855585 544.761818 
L 280.105922 544.097992 
L 280.356258 544.761818 
L 280.606595 543.434166 
L 280.856931 544.761818 
L 281.107268 536.795902 
L 281.357604 498.957802 
L 281.607941 544.761818 
L 281.858277 540.77886 
L 282.108614 542.106513 
L 282.35895 538.787381 
L 282.609287 542.106513 
L 282.859623 531.485292 
L 283.10996 544.761818 
L 283.360296 535.46825 
L 283.610633 535.46825 
L 283.860969 541.442687 
L 284.111306 544.761818 
L 284.611978 541.442687 
L 284.862315 492.319539 
L 285.112651 536.132076 
L 285.362988 534.140597 
L 285.613324 540.115034 
L 285.863661 534.140597 
L 286.113997 536.795902 
L 286.61467 496.966323 
L 286.865007 522.85555 
L 287.36568 544.097992 
L 287.616016 460.455875 
L 287.866353 542.770339 
L 288.116689 518.208765 
L 288.367026 524.847028 
L 288.617362 521.527897 
L 288.867699 543.434166 
L 289.118035 527.502334 
L 289.368371 542.106513 
L 289.618708 493.647191 
L 289.869044 544.761818 
L 290.119381 437.221954 
L 290.369717 542.106513 
L 290.620054 538.123555 
L 290.87039 542.770339 
L 291.120727 523.519376 
L 291.371063 544.761818 
L 291.6214 524.183202 
L 291.871736 438.549607 
L 292.122073 531.485292 
L 292.372409 531.485292 
L 292.873082 514.889634 
L 293.123419 530.157639 
L 293.373755 516.217286 
L 293.624092 543.434166 
L 293.874428 544.761818 
L 294.124764 544.761818 
L 294.375101 543.434166 
L 294.625437 535.46825 
L 294.875774 544.761818 
L 295.12611 536.795902 
L 295.376447 544.761818 
L 295.626783 540.115034 
L 295.87712 543.434166 
L 296.127456 536.795902 
L 296.377793 533.476771 
L 296.628129 533.476771 
L 296.878466 544.097992 
L 297.128802 540.115034 
L 297.379139 542.770339 
L 297.629475 542.770339 
L 297.879812 543.434166 
L 298.130148 526.838507 
L 298.380485 542.770339 
L 298.630821 527.502334 
L 298.881157 522.191723 
L 299.131494 510.242849 
L 299.38183 524.183202 
L 299.632167 516.881113 
L 300.13284 544.761818 
L 300.383176 543.434166 
L 300.633513 541.442687 
L 300.883849 534.140597 
L 301.134186 543.434166 
L 301.384522 542.106513 
L 301.634859 544.761818 
L 301.885195 543.434166 
L 302.135532 536.132076 
L 302.385868 540.77886 
L 302.636205 542.106513 
L 302.886541 544.097992 
L 303.136878 544.097992 
L 303.387214 544.761818 
L 303.63755 536.132076 
L 303.887887 543.434166 
L 304.138223 544.761818 
L 304.38856 544.097992 
L 304.638896 538.123555 
L 304.889233 534.804423 
L 305.139569 542.106513 
L 305.389906 538.787381 
L 305.640242 541.442687 
L 305.890579 522.191723 
L 306.140915 531.485292 
L 306.391252 522.85555 
L 306.641588 541.442687 
L 306.891925 541.442687 
L 307.142261 483.689796 
L 307.392598 531.485292 
L 307.642934 542.770339 
L 307.893271 536.795902 
L 308.143607 544.761818 
L 308.393943 543.434166 
L 308.64428 535.46825 
L 308.894616 542.770339 
L 309.144953 540.115034 
L 309.395289 531.485292 
L 309.645626 544.761818 
L 310.146299 544.761818 
L 310.396635 542.770339 
L 310.646972 544.761818 
L 310.897308 544.097992 
L 311.147645 530.157639 
L 311.397981 544.761818 
L 311.648318 544.097992 
L 311.898654 544.761818 
L 312.148991 534.140597 
L 312.399327 540.115034 
L 312.649664 537.459729 
L 312.9 526.838507 
L 313.150336 542.106513 
L 313.400673 525.510855 
L 313.651009 534.140597 
L 313.901346 536.132076 
L 314.151682 530.821465 
L 314.402019 533.476771 
L 314.652355 543.434166 
L 314.902692 530.821465 
L 315.153028 542.770339 
L 315.403365 544.097992 
L 315.653701 534.804423 
L 315.904038 544.761818 
L 316.154374 544.761818 
L 316.404711 543.434166 
L 316.655047 536.795902 
L 316.905384 544.097992 
L 317.15572 544.761818 
L 317.656393 544.761818 
L 317.906729 538.787381 
L 318.157066 542.770339 
L 318.407402 544.761818 
L 318.657739 537.459729 
L 318.908075 540.77886 
L 319.158412 540.77886 
L 319.659085 487.672754 
L 319.909421 535.46825 
L 320.159758 544.097992 
L 320.410094 462.447354 
L 320.660431 532.812944 
L 320.910767 541.442687 
L 321.161104 533.476771 
L 321.41144 542.770339 
L 321.661777 538.123555 
L 321.912113 528.829986 
L 322.16245 531.485292 
L 322.412786 543.434166 
L 322.663122 489.664233 
L 322.913459 544.097992 
L 323.163795 536.132076 
L 323.414132 473.068575 
L 323.664468 531.485292 
L 323.914805 544.097992 
L 324.165141 535.46825 
L 324.415478 540.77886 
L 324.665814 543.434166 
L 324.916151 544.761818 
L 325.166487 519.536418 
L 325.416824 542.770339 
L 325.66716 544.761818 
L 325.917497 543.434166 
L 326.167833 540.77886 
L 326.668506 530.157639 
L 326.918843 446.515522 
L 327.169179 527.502334 
L 327.419515 544.761818 
L 327.669852 541.442687 
L 327.920188 544.761818 
L 328.170525 543.434166 
L 328.420861 542.770339 
L 328.671198 535.46825 
L 328.921534 538.787381 
L 329.171871 538.787381 
L 329.422207 533.476771 
L 329.672544 544.097992 
L 329.92288 540.77886 
L 330.173217 535.46825 
L 330.423553 543.434166 
L 330.67389 476.387707 
L 330.924226 532.812944 
L 331.174563 542.106513 
L 331.424899 541.442687 
L 331.675236 533.476771 
L 331.925572 507.587544 
L 332.175908 510.242849 
L 332.426245 530.821465 
L 332.676581 525.510855 
L 332.926918 387.43498 
L 333.177254 531.485292 
L 333.427591 536.795902 
L 333.677927 525.510855 
L 333.928264 540.115034 
L 334.1786 503.604586 
L 334.428937 528.16616 
L 334.679273 485.017449 
L 335.179946 544.097992 
L 335.430283 542.770339 
L 335.680619 542.770339 
L 335.930956 544.761818 
L 336.181292 525.510855 
L 336.431629 544.761818 
L 336.681965 535.46825 
L 336.932301 544.761818 
L 337.182638 544.097992 
L 337.432974 544.761818 
L 337.683311 544.761818 
L 337.933647 544.097992 
L 338.183984 544.761818 
L 338.684657 544.761818 
L 338.934993 534.804423 
L 339.18533 544.761818 
L 339.686003 544.761818 
L 339.936339 532.812944 
L 340.186676 544.761818 
L 340.937685 544.761818 
L 341.188022 513.561981 
L 341.438358 544.761818 
L 341.688694 544.761818 
L 341.939031 516.881113 
L 342.189367 544.761818 
L 342.69004 538.123555 
L 342.940377 544.761818 
L 343.190713 544.097992 
L 343.44105 544.761818 
L 343.691386 505.596065 
L 343.941723 538.123555 
L 344.192059 544.761818 
L 344.442396 540.77886 
L 344.692732 544.761818 
L 345.694078 544.761818 
L 345.944415 542.770339 
L 346.194751 544.761818 
L 346.445087 544.761818 
L 346.695424 542.770339 
L 346.94576 544.761818 
L 348.197443 544.761818 
L 348.447779 530.157639 
L 348.698116 544.761818 
L 350.200135 544.761818 
L 350.450471 530.157639 
L 350.700808 544.761818 
L 351.702153 544.761818 
L 351.95249 530.821465 
L 352.202826 544.761818 
L 352.453163 530.821465 
L 352.703499 544.761818 
L 352.953836 544.761818 
L 353.204172 540.115034 
L 353.454509 544.761818 
L 353.704845 536.132076 
L 353.955182 544.761818 
L 354.455855 544.761818 
L 354.706191 531.485292 
L 354.956528 544.761818 
L 355.206864 544.097992 
L 355.457201 544.761818 
L 356.708883 544.761818 
L 356.959219 538.123555 
L 357.209556 544.761818 
L 357.459892 544.097992 
L 357.710229 536.795902 
L 357.960565 544.761818 
L 360.46393 544.761818 
L 360.714266 540.115034 
L 360.964603 544.761818 
L 361.965949 544.761818 
L 362.216285 536.132076 
L 362.466622 544.761818 
L 362.716958 530.157639 
L 362.967295 544.761818 
L 363.217631 543.434166 
L 363.467968 544.761818 
L 363.968641 544.761818 
L 364.218977 532.812944 
L 364.469314 544.761818 
L 365.720996 544.761818 
L 365.971332 542.770339 
L 366.221669 539.451208 
L 366.472005 542.106513 
L 366.722342 543.434166 
L 366.972678 537.459729 
L 367.223015 544.761818 
L 367.473351 544.097992 
L 367.723688 496.966323 
L 367.974024 542.106513 
L 368.474697 534.140597 
L 368.725034 544.761818 
L 368.97537 488.336581 
L 369.225707 544.097992 
L 369.476043 539.451208 
L 369.72638 544.761818 
L 369.976716 536.132076 
L 370.227052 537.459729 
L 370.477389 536.132076 
L 370.727725 532.149118 
L 370.978062 421.953948 
L 371.228398 539.451208 
L 371.478735 534.804423 
L 371.729071 542.106513 
L 371.979408 532.149118 
L 372.229744 536.795902 
L 372.480081 492.319539 
L 372.730417 369.511669 
L 372.980754 534.804423 
L 373.23109 542.770339 
L 373.481427 544.761818 
L 374.232436 544.761818 
L 374.482773 544.097992 
L 374.733109 538.123555 
L 374.983445 544.761818 
L 375.233782 544.761818 
L 375.484118 542.770339 
L 375.734455 544.761818 
L 375.984791 542.770339 
L 376.235128 544.761818 
L 377.48681 544.761818 
L 377.737147 535.46825 
L 377.987483 544.761818 
L 378.488156 544.761818 
L 378.988829 527.502334 
L 379.239166 532.812944 
L 379.489502 508.25137 
L 379.739838 544.761818 
L 379.990175 544.761818 
L 380.240511 533.476771 
L 380.490848 544.761818 
L 380.741184 541.442687 
L 380.991521 544.761818 
L 389.002288 544.761818 
L 389.252624 530.157639 
L 389.753297 544.761818 
L 391.505653 544.761818 
L 391.755989 542.106513 
L 392.006326 534.140597 
L 392.256662 532.812944 
L 392.506999 536.795902 
L 392.757335 485.017449 
L 393.007672 544.761818 
L 393.258008 457.136744 
L 393.508345 473.068575 
L 393.758681 425.27308 
L 394.009017 510.906676 
L 394.259354 425.936906 
L 394.50969 544.761818 
L 394.760027 544.761818 
L 395.010363 473.068575 
L 395.2607 544.761818 
L 397.263392 544.761818 
L 397.513728 543.434166 
L 397.764065 544.761818 
L 399.51642 544.761818 
L 399.766756 496.302497 
L 400.017093 210.193351 
L 400.267429 429.919864 
L 400.517766 524.183202 
L 400.768102 386.107327 
L 401.268775 540.115034 
L 401.519112 370.839322 
L 402.019785 473.732402 
L 402.270121 423.281601 
L 402.520458 346.941574 
L 402.770794 544.761818 
L 403.021131 544.761818 
L 403.271467 352.252185 
L 403.521803 544.761818 
L 403.77214 544.097992 
L 404.022476 537.459729 
L 404.272813 544.097992 
L 404.523149 544.761818 
L 404.773486 544.097992 
L 405.023822 544.761818 
L 406.275505 544.761818 
L 406.525841 544.097992 
L 406.776178 536.795902 
L 407.026514 534.804423 
L 407.527187 544.761818 
L 407.777524 540.115034 
L 408.02786 500.285455 
L 408.278197 532.812944 
L 408.528533 503.604586 
L 408.778869 496.302497 
L 409.029206 544.761818 
L 409.279542 536.132076 
L 409.529879 540.77886 
L 409.780215 540.77886 
L 410.030552 491.655712 
L 410.280888 536.132076 
L 410.531225 544.761818 
L 411.282234 544.761818 
L 411.532571 534.140597 
L 411.782907 544.761818 
L 412.033244 544.097992 
L 412.28358 544.761818 
L 412.533917 538.123555 
L 412.784253 538.787381 
L 413.03459 544.761818 
L 413.284926 544.761818 
L 413.535262 533.476771 
L 413.785599 544.761818 
L 414.286272 544.761818 
L 414.536608 534.140597 
L 415.037281 544.761818 
L 415.287618 533.476771 
L 415.537954 544.761818 
L 415.788291 544.761818 
L 416.038627 540.77886 
L 416.5393 540.77886 
L 416.789637 533.476771 
L 417.039973 536.132076 
L 417.29031 523.519376 
L 417.540646 537.459729 
L 418.041319 544.761818 
L 418.291655 544.761818 
L 418.541992 544.097992 
L 418.792328 544.761818 
L 421.796366 544.761818 
L 422.046703 536.795902 
L 422.297039 542.770339 
L 422.547376 544.761818 
L 422.797712 530.821465 
L 423.048048 544.761818 
L 423.298385 544.761818 
L 423.548721 536.132076 
L 423.799058 544.761818 
L 425.301077 544.761818 
L 425.551413 532.149118 
L 425.80175 534.140597 
L 426.052086 542.106513 
L 426.302423 544.761818 
L 426.552759 506.259891 
L 426.803096 534.140597 
L 427.053432 544.761818 
L 427.303769 542.106513 
L 427.554105 404.030638 
L 427.804441 385.443501 
L 428.054778 505.596065 
L 428.305114 465.766486 
L 428.555451 398.720027 
L 428.805787 470.41327 
L 429.056124 411.996554 
L 429.30646 448.507001 
L 429.556797 506.259891 
L 429.807133 446.515522 
L 430.05747 496.302497 
L 430.307806 419.962469 
L 430.558143 515.55346 
L 430.808479 508.915197 
L 431.058816 507.587544 
L 431.309152 535.46825 
L 431.559489 534.804423 
L 431.809825 513.561981 
L 432.060162 528.16616 
L 432.310498 526.838507 
L 432.560834 544.761818 
L 433.56218 544.761818 
L 433.812517 517.544939 
L 434.062853 521.527897 
L 434.31319 538.123555 
L 434.563526 521.527897 
L 434.813863 544.761818 
L 435.064199 532.149118 
L 435.314536 535.46825 
L 435.564872 542.770339 
L 435.815209 510.906676 
L 436.065545 544.761818 
L 436.315882 530.821465 
L 436.566218 544.761818 
L 436.816555 530.821465 
L 437.066891 544.761818 
L 438.819246 544.761818 
L 439.069583 530.821465 
L 439.319919 544.761818 
L 439.570256 511.570502 
L 439.820592 544.761818 
L 440.070929 501.613107 
L 440.321265 532.812944 
L 440.571602 544.761818 
L 440.821938 491.655712 
L 441.072275 544.097992 
L 441.322611 544.761818 
L 441.572948 542.770339 
L 441.823284 536.132076 
L 442.07362 544.761818 
L 442.574293 544.761818 
L 442.82463 536.132076 
L 443.074966 544.761818 
L 443.325303 544.097992 
L 443.575639 544.761818 
L 443.825976 542.770339 
L 444.076312 544.761818 
L 444.326649 539.451208 
L 444.576985 544.761818 
L 445.578331 544.761818 
L 445.828668 532.149118 
L 446.079004 544.761818 
L 446.329341 532.149118 
L 446.579677 544.761818 
L 448.582369 544.761818 
L 448.832705 540.77886 
L 449.083042 544.761818 
L 450.084388 544.761818 
L 450.334724 540.77886 
L 450.585061 544.761818 
L 451.33607 544.761818 
L 451.586406 533.476771 
L 451.836743 544.761818 
L 452.087079 537.459729 
L 452.337416 540.77886 
L 452.587752 521.527897 
L 452.838089 544.761818 
L 453.088425 536.795902 
L 453.589098 532.149118 
L 453.839435 544.761818 
L 454.089771 544.761818 
L 454.340108 532.812944 
L 454.590444 544.761818 
L 456.843472 544.761818 
L 457.093809 543.434166 
L 457.344145 544.761818 
L 457.594482 544.761818 
L 457.844818 537.459729 
L 458.095155 544.761818 
L 458.345491 538.787381 
L 458.595828 544.761818 
L 461.599865 544.761818 
L 461.850202 543.434166 
L 462.100538 542.770339 
L 462.350875 544.761818 
L 462.601211 543.434166 
L 462.851548 534.804423 
L 463.101884 533.476771 
L 463.352221 504.932239 
L 463.602557 536.795902 
L 463.852894 540.115034 
L 464.10323 512.898155 
L 464.353567 516.217286 
L 464.603903 544.761818 
L 464.85424 536.132076 
L 465.104576 483.02597 
L 465.354913 544.761818 
L 467.107268 544.761818 
L 467.357604 544.097992 
L 467.607941 544.761818 
L 467.858277 538.123555 
L 468.108614 542.770339 
L 468.35895 544.761818 
L 468.859623 544.761818 
L 469.10996 534.804423 
L 469.360296 544.761818 
L 469.610633 499.621628 
L 469.860969 542.770339 
L 470.111306 544.761818 
L 470.361642 544.761818 
L 470.611978 544.097992 
L 471.112651 535.46825 
L 471.613324 544.761818 
L 471.863661 544.761818 
L 472.364334 539.451208 
L 472.61467 542.770339 
L 472.865007 537.459729 
L 473.115343 544.097992 
L 473.36568 544.761818 
L 473.616016 544.761818 
L 473.866353 536.795902 
L 474.116689 544.761818 
L 474.617362 544.761818 
L 474.867699 530.821465 
L 475.118035 544.761818 
L 475.368371 544.761818 
L 475.618708 531.485292 
L 475.869044 544.761818 
L 477.6214 544.761818 
L 477.871736 527.502334 
L 478.122073 539.451208 
L 478.372409 536.132076 
L 478.622746 544.761818 
L 478.873082 529.493813 
L 479.373755 544.761818 
L 479.624092 542.106513 
L 479.874428 544.761818 
L 480.124764 538.787381 
L 480.375101 544.761818 
L 480.875774 544.761818 
L 481.12611 543.434166 
L 481.376447 544.761818 
L 481.626783 544.761818 
L 481.87712 538.123555 
L 482.127456 514.889634 
L 482.377793 542.106513 
L 482.628129 540.115034 
L 482.878466 544.761818 
L 484.380485 544.761818 
L 484.630821 540.77886 
L 484.881157 544.761818 
L 486.383176 544.761818 
L 486.633513 536.795902 
L 486.883849 544.761818 
L 487.885195 544.761818 
L 488.135532 537.459729 
L 488.385868 544.761818 
L 488.636205 535.46825 
L 488.886541 544.761818 
L 489.387214 544.761818 
L 489.63755 536.132076 
L 489.887887 544.097992 
L 490.138223 544.097992 
L 490.38856 544.761818 
L 490.638896 542.770339 
L 490.889233 544.761818 
L 491.139569 542.770339 
L 491.389906 534.140597 
L 491.640242 544.761818 
L 491.890579 528.16616 
L 492.391252 544.761818 
L 492.641588 542.770339 
L 492.891925 501.613107 
L 493.142261 537.459729 
L 493.392598 544.761818 
L 493.642934 525.510855 
L 493.893271 535.46825 
L 494.143607 536.795902 
L 494.393943 529.493813 
L 494.64428 526.838507 
L 494.894616 544.761818 
L 495.144953 505.596065 
L 495.395289 544.761818 
L 495.645626 544.761818 
L 496.146299 498.957802 
L 496.396635 392.081764 
L 496.646972 527.502334 
L 496.897308 357.562795 
L 497.147645 525.510855 
L 497.397981 485.017449 
L 497.648318 544.097992 
L 497.898654 544.761818 
L 498.148991 519.536418 
L 498.649664 512.234328 
L 498.9 513.561981 
L 499.150336 537.459729 
L 499.400673 544.761818 
L 499.651009 544.761818 
L 499.901346 524.847028 
L 500.151682 458.464396 
L 500.402019 517.544939 
L 500.902692 543.434166 
L 501.153028 532.149118 
L 501.403365 475.723881 
L 501.653701 479.706839 
L 501.904038 534.804423 
L 502.154374 536.795902 
L 502.404711 544.761818 
L 502.655047 539.451208 
L 502.905384 544.761818 
L 503.15572 410.005075 
L 503.406057 543.434166 
L 503.656393 543.434166 
L 503.906729 536.795902 
L 504.157066 543.434166 
L 504.407402 535.46825 
L 504.657739 544.761818 
L 504.908075 544.761818 
L 505.158412 541.442687 
L 505.408748 544.761818 
L 505.659085 544.761818 
L 505.909421 521.527897 
L 506.159758 522.85555 
L 506.410094 536.132076 
L 506.660431 541.442687 
L 506.910767 422.617775 
L 507.161104 429.256038 
L 507.41144 529.493813 
L 507.661777 388.098806 
L 507.912113 535.46825 
L 508.16245 467.757965 
L 508.412786 475.060054 
L 508.663122 477.71536 
L 508.913459 523.519376 
L 509.163795 455.145265 
L 509.414132 439.877259 
L 509.664468 498.293976 
L 510.165141 543.434166 
L 510.415478 540.77886 
L 510.916151 544.097992 
L 511.166487 544.761818 
L 511.416824 538.123555 
L 511.66716 539.451208 
L 511.917497 541.442687 
L 512.167833 544.761818 
L 512.41817 538.787381 
L 512.668506 544.761818 
L 513.920188 544.761818 
L 514.170525 538.123555 
L 514.420861 544.761818 
L 514.671198 544.761818 
L 514.921534 544.097992 
L 515.422207 530.157639 
L 515.672544 543.434166 
L 515.92288 537.459729 
L 516.173217 544.761818 
L 516.423553 532.149118 
L 516.67389 538.123555 
L 516.924226 538.123555 
L 517.174563 544.761818 
L 517.424899 543.434166 
L 517.675236 372.166974 
L 517.925572 544.761818 
L 518.175908 536.795902 
L 518.426245 494.311018 
L 518.676581 538.787381 
L 518.926918 492.319539 
L 519.177254 544.761818 
L 519.427591 481.698318 
L 519.677927 544.761818 
L 519.928264 129.870366 
L 520.1786 520.200244 
L 520.428937 521.527897 
L 520.679273 536.795902 
L 520.92961 485.681275 
L 521.179946 464.438833 
L 521.430283 491.655712 
L 521.680619 457.80057 
L 522.181292 475.723881 
L 522.431629 542.770339 
L 522.681965 540.115034 
L 522.932301 527.502334 
L 523.182638 536.132076 
L 523.432974 528.16616 
L 523.683311 540.115034 
L 523.933647 544.761818 
L 524.183984 544.097992 
L 524.43432 544.097992 
L 524.684657 544.761818 
L 524.934993 542.770339 
L 525.18533 544.761818 
L 525.435666 544.761818 
L 525.686003 544.097992 
L 526.186676 544.097992 
L 526.437012 544.761818 
L 526.937685 544.761818 
L 527.188022 539.451208 
L 527.438358 544.761818 
L 527.688694 544.761818 
L 527.939031 535.46825 
L 528.189367 544.761818 
L 528.439704 538.123555 
L 528.69004 526.174681 
L 528.940377 544.761818 
L 530.692732 544.761818 
L 530.943069 540.77886 
L 531.193405 544.761818 
L 531.443742 543.434166 
L 531.694078 540.115034 
L 531.944415 544.761818 
L 532.194751 542.770339 
L 532.445087 496.302497 
L 532.695424 530.157639 
L 532.94576 544.761818 
L 533.196097 481.698318 
L 533.446433 471.077096 
L 533.69677 544.761818 
L 533.947106 499.621628 
L 534.197443 510.242849 
L 534.447779 439.877259 
L 534.698116 437.221954 
L 534.948452 529.493813 
L 535.198789 541.442687 
L 535.449125 508.25137 
L 535.699462 540.77886 
L 535.949798 544.761818 
L 536.200135 544.761818 
L 536.700808 515.55346 
L 536.951144 544.761818 
L 537.20148 536.795902 
L 537.451817 544.097992 
L 537.702153 542.770339 
L 537.95249 544.761818 
L 538.202826 538.123555 
L 538.453163 544.761818 
L 538.703499 542.106513 
L 538.953836 543.434166 
L 539.204172 538.123555 
L 539.454509 544.761818 
L 539.704845 544.761818 
L 539.955182 538.123555 
L 540.205518 536.795902 
L 540.455855 543.434166 
L 540.706191 533.476771 
L 540.956528 541.442687 
L 541.206864 544.761818 
L 541.457201 544.761818 
L 541.707537 478.379186 
L 541.957873 539.451208 
L 542.20821 540.77886 
L 542.458546 537.459729 
L 542.708883 504.932239 
L 542.959219 541.442687 
L 543.209556 538.787381 
L 543.459892 542.770339 
L 543.710229 541.442687 
L 544.210902 544.097992 
L 544.461238 524.847028 
L 544.711575 544.761818 
L 544.961911 543.434166 
L 545.212248 540.77886 
L 545.462584 544.761818 
L 545.712921 544.761818 
L 545.963257 540.115034 
L 546.213594 544.761818 
L 546.46393 544.097992 
L 546.714266 534.140597 
L 546.964603 544.761818 
L 547.214939 536.132076 
L 547.465276 514.225807 
L 547.715612 538.787381 
L 547.965949 544.761818 
L 548.466622 543.434166 
L 548.967295 544.761818 
L 549.467968 532.812944 
L 549.718304 544.097992 
L 549.968641 544.761818 
L 550.218977 543.434166 
L 550.71965 544.761818 
L 551.470659 544.761818 
L 551.720996 538.787381 
L 551.971332 540.77886 
L 552.221669 544.761818 
L 552.472005 524.847028 
L 552.722342 544.761818 
L 552.972678 544.761818 
L 553.223015 537.459729 
L 553.473351 544.761818 
L 553.723688 540.77886 
L 553.974024 515.55346 
L 554.224361 539.451208 
L 554.474697 543.434166 
L 554.725034 538.123555 
L 554.97537 536.132076 
L 555.225707 504.268412 
L 555.476043 506.259891 
L 555.72638 524.847028 
L 555.976716 400.711506 
L 556.227052 508.25137 
L 556.477389 531.485292 
L 556.727725 534.804423 
L 556.978062 540.115034 
L 557.228398 520.200244 
L 557.478735 486.345102 
L 557.729071 544.761818 
L 557.979408 544.761818 
L 558.229744 543.434166 
L 558.480081 544.761818 
L 558.730417 544.761818 
L 558.980754 511.570502 
L 559.23109 544.761818 
L 559.481427 544.761818 
L 559.731763 544.097992 
L 559.9821 544.761818 
L 560.482773 544.761818 
L 560.733109 543.434166 
L 560.983445 525.510855 
L 561.233782 543.434166 
L 561.484118 544.761818 
L 561.734455 539.451208 
L 561.984791 544.761818 
L 562.235128 544.761818 
L 562.485464 543.434166 
L 562.735801 544.761818 
L 562.986137 518.208765 
L 563.236474 470.41327 
L 563.48681 542.106513 
L 564.23782 527.502334 
L 564.738493 543.434166 
L 564.988829 528.16616 
L 565.239166 544.761818 
L 565.489502 544.761818 
L 565.739838 538.123555 
L 565.990175 544.097992 
L 566.240511 544.761818 
L 566.490848 542.770339 
L 566.741184 544.761818 
L 567.492194 544.761818 
L 567.74253 538.787381 
L 567.992867 538.123555 
L 568.243203 538.787381 
L 568.49354 544.761818 
L 568.743876 534.804423 
L 568.994213 534.140597 
L 569.244549 531.485292 
L 569.494886 539.451208 
L 569.745222 534.804423 
L 569.995559 543.434166 
L 570.245895 535.46825 
L 570.496231 544.761818 
L 570.746568 536.132076 
L 570.996904 534.804423 
L 571.247241 490.32806 
L 571.497577 541.442687 
L 571.747914 544.761818 
L 572.248587 538.123555 
L 572.498923 544.761818 
L 572.74926 544.761818 
L 572.999596 543.434166 
L 573.500269 544.761818 
L 574.751952 544.761818 
L 575.002288 539.451208 
L 575.252624 544.761818 
L 576.504307 544.761818 
L 576.754643 539.451208 
L 577.00498 544.097992 
L 577.255316 538.123555 
L 577.505653 544.761818 
L 578.006326 544.761818 
L 578.506999 543.434166 
L 578.757335 544.761818 
L 579.508345 544.761818 
L 579.758681 539.451208 
L 580.009017 543.434166 
L 580.259354 543.434166 
L 580.50969 503.604586 
L 580.760027 542.106513 
L 581.010363 530.821465 
L 581.2607 536.132076 
L 581.511036 534.140597 
L 581.761373 509.579023 
L 582.011709 528.829986 
L 582.262046 535.46825 
L 582.512382 495.63867 
L 582.762719 539.451208 
L 583.013055 528.16616 
L 583.263392 498.293976 
L 583.513728 543.434166 
L 584.014401 490.991886 
L 584.264738 528.829986 
L 584.515074 535.46825 
L 584.76541 532.149118 
L 585.015747 501.613107 
L 585.266083 544.761818 
L 585.51642 528.829986 
L 585.766756 542.770339 
L 586.267429 538.123555 
L 586.517766 520.864071 
L 586.768102 544.761818 
L 587.018439 530.157639 
L 587.268775 540.77886 
L 587.519112 490.991886 
L 587.769448 526.838507 
L 588.019785 538.123555 
L 588.270121 530.821465 
L 588.520458 432.57517 
L 588.770794 544.761818 
L 589.271467 524.847028 
L 589.521803 544.761818 
L 589.77214 537.459729 
L 590.022476 508.25137 
L 590.272813 543.434166 
L 590.523149 538.123555 
L 590.773486 544.761818 
L 591.023822 538.123555 
L 591.524495 543.434166 
L 591.774832 544.761818 
L 592.025168 540.115034 
L 592.275505 543.434166 
L 592.525841 544.761818 
L 592.776178 538.123555 
L 593.026514 521.527897 
L 593.276851 544.761818 
L 593.527187 498.293976 
L 593.777524 528.829986 
L 594.02786 541.442687 
L 594.278197 532.812944 
L 594.528533 528.16616 
L 594.778869 544.761818 
L 595.279542 518.208765 
L 595.529879 544.761818 
L 595.780215 544.097992 
L 596.030552 538.123555 
L 596.280888 541.442687 
L 596.531225 539.451208 
L 596.781561 544.761818 
L 597.031898 541.442687 
L 597.282234 524.183202 
L 597.532571 533.476771 
L 597.782907 537.459729 
L 598.033244 543.434166 
L 598.28358 536.795902 
L 598.533917 544.761818 
L 598.784253 539.451208 
L 599.03459 524.847028 
L 599.284926 532.149118 
L 599.535262 543.434166 
L 599.785599 526.174681 
L 600.035935 544.761818 
L 600.286272 538.123555 
L 600.536608 544.761818 
L 600.786945 544.761818 
L 601.037281 540.77886 
L 601.287618 511.570502 
L 601.537954 541.442687 
L 601.788291 544.761818 
L 602.038627 536.795902 
L 602.288964 536.795902 
L 602.5393 544.761818 
L 602.789637 544.761818 
L 603.039973 530.157639 
L 603.29031 544.761818 
L 603.540646 540.77886 
L 603.790983 544.761818 
L 604.041319 520.864071 
L 604.291655 539.451208 
L 604.541992 544.761818 
L 604.792328 544.761818 
L 605.042665 511.570502 
L 605.293001 543.434166 
L 605.543338 540.77886 
L 605.793674 543.434166 
L 606.044011 539.451208 
L 606.294347 543.434166 
L 606.544684 544.761818 
L 606.79502 540.77886 
L 607.045357 544.761818 
L 607.295693 538.123555 
L 607.54603 544.761818 
L 608.046703 544.761818 
L 608.297039 544.097992 
L 608.547376 544.761818 
L 608.797712 544.761818 
L 609.048048 543.434166 
L 609.298385 544.761818 
L 609.548721 544.097992 
L 609.799058 544.761818 
L 610.049394 544.761818 
L 610.299731 542.106513 
L 610.550067 544.761818 
L 610.800404 544.761818 
L 611.05074 542.770339 
L 611.301077 544.761818 
L 611.551413 536.795902 
L 611.80175 544.761818 
L 612.052086 540.115034 
L 612.302423 544.097992 
L 612.552759 542.106513 
L 612.803096 544.761818 
L 613.303769 531.485292 
L 613.554105 539.451208 
L 613.804441 540.77886 
L 614.054778 538.123555 
L 614.305114 539.451208 
L 614.555451 543.434166 
L 614.805787 539.451208 
L 615.30646 543.434166 
L 615.556797 534.804423 
L 615.807133 511.570502 
L 616.05747 518.208765 
L 616.307806 540.115034 
L 616.558143 536.132076 
L 616.808479 534.804423 
L 617.058816 543.434166 
L 617.309152 544.097992 
L 617.559489 542.106513 
L 617.809825 544.761818 
L 618.060162 539.451208 
L 618.310498 542.106513 
L 618.560834 542.770339 
L 618.811171 539.451208 
L 619.061507 544.761818 
L 619.812517 544.761818 
L 620.062853 540.115034 
L 620.31319 539.451208 
L 620.563526 544.761818 
L 620.813863 544.761818 
L 621.064199 543.434166 
L 621.314536 544.761818 
L 621.564872 538.787381 
L 621.815209 544.761818 
L 622.065545 543.434166 
L 622.315882 524.847028 
L 622.566218 537.459729 
L 622.816555 532.812944 
L 623.317227 544.761818 
L 623.8179 544.761818 
L 624.068237 543.434166 
L 624.318573 544.761818 
L 624.56891 544.761818 
L 624.819246 543.434166 
L 625.069583 540.77886 
L 625.319919 544.761818 
L 625.820592 544.761818 
L 626.070929 538.787381 
L 626.321265 544.761818 
L 626.571602 537.459729 
L 626.821938 544.761818 
L 627.072275 544.761818 
L 627.322611 543.434166 
L 627.572948 544.761818 
L 627.823284 538.123555 
L 628.07362 543.434166 
L 628.323957 544.761818 
L 628.574293 543.434166 
L 629.074966 544.761818 
L 629.825976 544.761818 
L 630.076312 540.115034 
L 630.326649 541.442687 
L 630.576985 539.451208 
L 630.827322 543.434166 
L 631.077658 544.097992 
L 631.327995 526.174681 
L 631.578331 544.761818 
L 631.828668 544.761818 
L 632.079004 522.85555 
L 632.329341 524.847028 
L 632.579677 537.459729 
L 632.830013 540.115034 
L 633.08035 523.519376 
L 633.330686 540.115034 
L 633.581023 499.621628 
L 633.831359 544.761818 
L 634.081696 499.621628 
L 634.332032 543.434166 
L 634.582369 544.761818 
L 634.832705 541.442687 
L 635.083042 531.485292 
L 635.333378 544.761818 
L 635.583715 544.097992 
L 635.834051 542.770339 
L 636.084388 538.123555 
L 636.334724 544.761818 
L 636.585061 541.442687 
L 636.835397 511.570502 
L 637.085734 540.115034 
L 637.33607 543.434166 
L 637.586406 538.123555 
L 637.836743 536.795902 
L 638.087079 544.761818 
L 638.587752 530.821465 
L 638.838089 544.761818 
L 639.088425 534.140597 
L 639.338762 542.770339 
L 639.589098 518.872592 
L 639.839435 544.761818 
L 640.089771 541.442687 
L 640.340108 544.761818 
L 640.590444 541.442687 
L 640.840781 544.761818 
L 641.091117 542.770339 
L 641.341454 385.443501 
L 641.59179 541.442687 
L 641.842127 544.761818 
L 642.092463 538.787381 
L 642.342799 526.838507 
L 642.593136 544.761818 
L 642.843472 544.761818 
L 643.093809 498.293976 
L 643.344145 544.761818 
L 643.594482 544.761818 
L 643.844818 536.795902 
L 644.095155 542.770339 
L 644.345491 522.85555 
L 644.595828 540.77886 
L 645.096501 544.761818 
L 645.346837 544.761818 
L 645.597174 538.123555 
L 645.84751 544.761818 
L 646.348183 544.761818 
L 646.59852 531.485292 
L 646.848856 544.761818 
L 647.099192 540.115034 
L 647.349529 279.231289 
L 647.599865 536.795902 
L 647.850202 542.770339 
L 648.100538 540.115034 
L 648.350875 531.485292 
L 648.601211 540.77886 
L 648.851548 544.761818 
L 649.101884 491.655712 
L 649.352221 489.000407 
L 649.602557 465.766486 
L 650.10323 541.442687 
L 650.353567 504.268412 
L 650.603903 538.787381 
L 650.85424 541.442687 
L 651.104576 542.770339 
L 651.354913 536.795902 
L 651.605249 524.847028 
L 651.855585 544.761818 
L 652.105922 537.459729 
L 652.356258 544.761818 
L 652.606595 524.847028 
L 652.856931 540.77886 
L 653.107268 544.761818 
L 653.357604 536.795902 
L 653.607941 543.434166 
L 653.858277 544.761818 
L 654.108614 538.123555 
L 654.35895 544.761818 
L 654.859623 544.761818 
L 655.10996 538.787381 
L 655.360296 544.097992 
L 655.610633 544.761818 
L 655.860969 544.761818 
L 656.111306 536.132076 
L 656.361642 518.208765 
L 656.611978 544.761818 
L 656.862315 535.46825 
L 657.112651 538.787381 
L 657.362988 544.761818 
L 657.863661 543.434166 
L 658.113997 540.77886 
L 658.364334 529.493813 
L 658.61467 544.761818 
L 658.865007 524.847028 
L 659.115343 544.761818 
L 659.36568 524.847028 
L 659.616016 544.761818 
L 661.118035 544.761818 
L 661.368371 540.115034 
L 661.618708 544.761818 
L 661.869044 540.115034 
L 662.119381 544.761818 
L 662.369717 543.434166 
L 662.620054 534.140597 
L 662.87039 536.795902 
L 663.120727 544.761818 
L 663.371063 544.761818 
L 663.6214 528.16616 
L 663.871736 541.442687 
L 664.122073 544.761818 
L 664.372409 544.097992 
L 664.622746 544.761818 
L 664.873082 540.77886 
L 665.123419 544.761818 
L 665.373755 544.761818 
L 665.624092 542.106513 
L 665.874428 544.761818 
L 666.124764 543.434166 
L 666.375101 537.459729 
L 666.625437 544.761818 
L 666.875774 540.77886 
L 667.12611 538.787381 
L 667.376447 544.761818 
L 668.377793 544.761818 
L 668.628129 541.442687 
L 668.878466 544.761818 
L 669.379139 544.761818 
L 669.629475 522.191723 
L 669.879812 544.761818 
L 670.130148 538.123555 
L 670.380485 544.761818 
L 670.630821 544.761818 
L 670.881157 534.804423 
L 671.131494 544.761818 
L 671.38183 540.115034 
L 671.632167 544.761818 
L 672.383176 544.761818 
L 672.633513 534.140597 
L 672.883849 544.761818 
L 673.134186 544.761818 
L 673.384522 535.46825 
L 673.634859 544.761818 
L 673.885195 544.761818 
L 674.135532 539.451208 
L 674.385868 544.761818 
L 674.636205 540.115034 
L 674.886541 544.761818 
L 675.136878 539.451208 
L 675.387214 544.097992 
L 675.63755 530.157639 
L 675.887887 544.761818 
L 676.138223 544.761818 
L 676.38856 540.77886 
L 676.638896 516.881113 
L 676.889233 523.519376 
L 677.139569 544.761818 
L 677.389906 543.434166 
L 677.640242 516.881113 
L 677.890579 536.795902 
L 678.391252 544.761818 
L 678.641588 536.132076 
L 678.891925 544.097992 
L 679.142261 544.761818 
L 679.642934 536.795902 
L 680.143607 544.761818 
L 680.64428 544.761818 
L 680.894616 538.787381 
L 681.144953 542.770339 
L 681.395289 544.761818 
L 681.645626 544.761818 
L 681.895962 544.097992 
L 682.146299 538.123555 
L 682.396635 507.587544 
L 682.646972 543.434166 
L 682.897308 544.761818 
L 683.147645 540.77886 
L 683.397981 544.761818 
L 683.648318 511.570502 
L 683.898654 544.761818 
L 684.399327 544.761818 
L 684.649664 539.451208 
L 684.9 514.889634 
L 684.9 514.889634 
" style="fill:none;stroke:#c32001;stroke-linecap:square;stroke-width:1.5;"/>
   </g>
   <g id="patch_3">
    <path d="M 99 567 
L 99 77.76 
" style="fill:none;stroke:#000000;stroke-linecap:square;stroke-linejoin:miter;stroke-width:0.8;"/>
   </g>
   <g id="patch_4">
    <path d="M 712.8 567 
L 712.8 77.76 
" style="fill:none;stroke:#000000;stroke-linecap:square;stroke-linejoin:miter;stroke-width:0.8;"/>
   </g>
   <g id="patch_5">
    <path d="M 99 567 
L 712.8 567 
" style="fill:none;stroke:#000000;stroke-linecap:square;stroke-linejoin:miter;stroke-width:0.8;"/>
   </g>
   <g id="patch_6">
    <path d="M 99 77.76 
L 712.8 77.76 
" style="fill:none;stroke:#000000;stroke-linecap:square;stroke-linejoin:miter;stroke-width:0.8;"/>
   </g>
   <g id="text_16">
    <!-- A Year of Precipitation in Hawaii -->
    <defs>
     <path d="M 34.1875 63.1875 
L 20.796875 26.90625 
L 47.609375 26.90625 
z
M 28.609375 72.90625 
L 39.796875 72.90625 
L 67.578125 0 
L 57.328125 0 
L 50.6875 18.703125 
L 17.828125 18.703125 
L 11.1875 0 
L 0.78125 0 
z
" id="DejaVuSans-65"/>
     <path d="M -0.203125 72.90625 
L 10.40625 72.90625 
L 30.609375 42.921875 
L 50.6875 72.90625 
L 61.28125 72.90625 
L 35.5 34.71875 
L 35.5 0 
L 25.59375 0 
L 25.59375 34.71875 
z
" id="DejaVuSans-89"/>
     <path d="M 37.109375 75.984375 
L 37.109375 68.5 
L 28.515625 68.5 
Q 23.6875 68.5 21.796875 66.546875 
Q 19.921875 64.59375 19.921875 59.515625 
L 19.921875 54.6875 
L 34.71875 54.6875 
L 34.71875 47.703125 
L 19.921875 47.703125 
L 19.921875 0 
L 10.890625 0 
L 10.890625 47.703125 
L 2.296875 47.703125 
L 2.296875 54.6875 
L 10.890625 54.6875 
L 10.890625 58.5 
Q 10.890625 67.625 15.140625 71.796875 
Q 19.390625 75.984375 28.609375 75.984375 
z
" id="DejaVuSans-102"/>
     <path d="M 9.8125 72.90625 
L 19.671875 72.90625 
L 19.671875 43.015625 
L 55.515625 43.015625 
L 55.515625 72.90625 
L 65.375 72.90625 
L 65.375 0 
L 55.515625 0 
L 55.515625 34.71875 
L 19.671875 34.71875 
L 19.671875 0 
L 9.8125 0 
z
" id="DejaVuSans-72"/>
     <path d="M 4.203125 54.6875 
L 13.1875 54.6875 
L 24.421875 12.015625 
L 35.59375 54.6875 
L 46.1875 54.6875 
L 57.421875 12.015625 
L 68.609375 54.6875 
L 77.59375 54.6875 
L 63.28125 0 
L 52.6875 0 
L 40.921875 44.828125 
L 29.109375 0 
L 18.5 0 
z
" id="DejaVuSans-119"/>
    </defs>
    <g transform="translate(309.676875 71.76)scale(0.12 -0.12)">
     <use xlink:href="#DejaVuSans-65"/>
     <use x="68.408203" xlink:href="#DejaVuSans-32"/>
     <use x="100.195312" xlink:href="#DejaVuSans-89"/>
     <use x="161.076172" xlink:href="#DejaVuSans-101"/>
     <use x="222.599609" xlink:href="#DejaVuSans-97"/>
     <use x="283.878906" xlink:href="#DejaVuSans-114"/>
     <use x="324.992188" xlink:href="#DejaVuSans-32"/>
     <use x="356.779297" xlink:href="#DejaVuSans-111"/>
     <use x="417.960938" xlink:href="#DejaVuSans-102"/>
     <use x="453.166016" xlink:href="#DejaVuSans-32"/>
     <use x="484.953125" xlink:href="#DejaVuSans-80"/>
     <use x="545.240234" xlink:href="#DejaVuSans-114"/>
     <use x="586.322266" xlink:href="#DejaVuSans-101"/>
     <use x="647.845703" xlink:href="#DejaVuSans-99"/>
     <use x="702.826172" xlink:href="#DejaVuSans-105"/>
     <use x="730.609375" xlink:href="#DejaVuSans-112"/>
     <use x="794.085938" xlink:href="#DejaVuSans-105"/>
     <use x="821.869141" xlink:href="#DejaVuSans-116"/>
     <use x="861.078125" xlink:href="#DejaVuSans-97"/>
     <use x="922.357422" xlink:href="#DejaVuSans-116"/>
     <use x="961.566406" xlink:href="#DejaVuSans-105"/>
     <use x="989.349609" xlink:href="#DejaVuSans-111"/>
     <use x="1050.53125" xlink:href="#DejaVuSans-110"/>
     <use x="1113.910156" xlink:href="#DejaVuSans-32"/>
     <use x="1145.697266" xlink:href="#DejaVuSans-105"/>
     <use x="1173.480469" xlink:href="#DejaVuSans-110"/>
     <use x="1236.859375" xlink:href="#DejaVuSans-32"/>
     <use x="1268.646484" xlink:href="#DejaVuSans-72"/>
     <use x="1343.841797" xlink:href="#DejaVuSans-97"/>
     <use x="1405.121094" xlink:href="#DejaVuSans-119"/>
     <use x="1486.908203" xlink:href="#DejaVuSans-97"/>
     <use x="1548.1875" xlink:href="#DejaVuSans-105"/>
     <use x="1575.970703" xlink:href="#DejaVuSans-105"/>
    </g>
   </g>
  </g>
 </g>
 <defs>
  <clipPath id="p8976e428bc">
   <rect height="489.24" width="613.8" x="99" y="77.76"/>
  </clipPath>
 </defs>
</svg>
